<svg
   version="1.1"
	xmlns="http://www.w3.org/2000/svg"
   xmlns:xlink="http://www.w3.org/1999/xlink"
   x="0px"
   y="0px"
   viewBox="0 0 124.693 182.908"
   enableBackground="new 0 0 124.693 182.908"
   id="jo"
   xmlSpace="preserve">
	<defs>
		<path
         id="path"
         d="M 14.749,0 C 10.65067,19.822939 -3.8311517,49.339605 35,61.408005 l 52.853553,19.62132 C 145.76873,116.38018 83.682575,179.10709 61.62132,168.92577 38.977188,178.87081 -30.355304,120.29069 57.87868,69.408005 79.156241,66.442864 100.93101,61.729633 114.06066,44.279325 119.06784,32.74225 117.93668,18.136004 109.746,0"
         stroke-dasharray="1000"
         stroke-dashoffset="1000"
         stroke-width="36"
         stroke="#CCC"
         fill="none">
         <animate 
            id="j1" 
            attributeName="stroke-dashoffset" 
            animation-timing-function="ease-in-out"
            values="1000;480;1000" 
            begin="0s;j1.end"
            dur="2.5s" />
            <!-- repeatCount="indefinite" /> -->
         </path>
		<clipPath id="clip">
			<path
id="o"
d="M79.894,60.604l-15.199-5.151l-0.125-0.035c-1.322-0.419-2.645-0.837-3.995-1.255l-0.324-0.097
c-7.567-2.446-14.906-5.155-21.027-7.437c-0.9-0.322-1.739-0.646-2.574-0.966c-2.608-0.938-5.285-1.931-7.763-3.317
l-0.065-0.032c-4.798-2.576-8.505-6.148-10.723-10.37c-1.03-1.995-1.87-4.283-2.417-6.89c-0.256-1.128-0.45-2.288-0.58-3.413
c-0.13-1-0.194-2.094-0.255-3.318c-0.033-0.483-0.066-0.934-0.066-1.42L14.749,0l-8.82,14.328
c-0.682,1.191-1.355,2.447-1.972,3.733c-1.476,3.225-2.604,6.608-3.248,9.921c-0.324,1.674-0.515,3.413-0.643,5.219
C0.032,34.004,0,34.877,0,35.776c0,4.732,0.741,9.53,2.222,14.3c2.06,6.498,5.958,12.396,10.95,16.549
c2.026,1.708,4.348,3.285,6.921,4.639l0.711,0.355c0.319,0.191,0.645,0.352,0.933,0.48c0.222,0.129,0.45,0.229,0.711,0.357
c0.092,0.027,0.189,0.096,0.287,0.127c1.484,0.709,2.996,1.287,4.477,1.835l0.223,0.065c0.228,0.125,0.488,0.223,0.71,0.32
c0.195,0.098,0.357,0.162,0.553,0.254c0.19,0.072,0.352,0.135,0.542,0.229c0.227,0.097,0.449,0.161,0.678,0.258
c0.13,0.067,0.292,0.126,0.423,0.163c0.287,0.127,0.574,0.223,0.867,0.353c0.157,0.065,0.319,0.132,0.515,0.192
c0.26,0.096,0.548,0.193,0.835,0.291l34.625,11.621c4.955,1.516,9.011,2.9,13.624,5.545
c9.686,6.5,14.067,15.682,14.067,26.789c0,17.971-14.627,32.59-32.594,32.59c-17.971,0-32.622-14.619-32.622-32.59
c0-11.107,5.604-20.93,14.138-26.822c3.321-2.291,7.052-3.961,11.078-4.893l-23.568-8.023
c-1.968-0.709-3.74-1.383-5.345-2.125l-0.065-0.031c-1.582-0.547-3.159-1.222-4.77-1.936
c-0.704-0.352-1.415-0.705-2.092-1.057c-0.223,0.223-0.483,0.448-0.737,0.671C6.151,88.427,0,104.461,0,123.881
c0,0.322,0.032,0.613,0.032,0.934c2.06,30.4,25.889,54.809,56.001,57.775c2.059,0.223,4.151,0.318,6.245,0.318
c1.999,0,3.929-0.096,5.895-0.289c30.27-2.834,54.265-27.309,56.356-57.805c0.101-1.414,0.164-2.867,0.164-4.314
C124.693,92.133,105.783,68.201,79.894,60.604z"
></path>
			<path
id="j"
d="M106.109,70.328c1.901-1.129,3.673-2.381,5.279-3.735c4.964-4.12,8.862-10.018,10.923-16.517
c1.482-4.77,2.253-9.568,2.253-14.3c0-0.899-0.035-1.772-0.102-2.575c-0.094-1.806-0.289-3.572-0.613-5.219
c-0.669-3.347-1.733-6.696-3.285-9.948c-0.575-1.29-1.252-2.549-1.956-3.737L109.746,0l0.036,16.902
c-0.036,0.486-0.036,0.937-0.065,1.42c-0.063,1.225-0.13,2.318-0.259,3.318c-0.13,1.125-0.325,2.285-0.575,3.413
c-0.586,2.606-1.393,4.895-2.451,6.857c-2.226,4.254-5.891,7.826-10.725,10.368l-0.066,0.066
c-2.439,1.352-5.113,2.348-7.729,3.317c-0.836,0.32-1.672,0.643-2.572,0.966c-4.77,1.771-10.271,3.799-16.033,5.762
l15.84,5.379C92.747,60.506,99.76,64.727,106.109,70.328z"
></path>
		</clipPath>
	</defs>
	<use xlink:href="#path" clip-path="url(#clip)"></use>
</svg>